<?xml version="1.0" encoding="utf-8"?>
<!-- Generator: Adobe Illustrator 16.0.3, SVG Export Plug-In . SVG Version: 6.00 Build 0)  -->
<!DOCTYPE svg PUBLIC "-//W3C//DTD SVG 1.1//EN" "http://www.w3.org/Graphics/SVG/1.1/DTD/svg11.dtd">
<svg version="1.1" id="Capa_1" xmlns="http://www.w3.org/2000/svg" xmlns:xlink="http://www.w3.org/1999/xlink" x="0px" y="0px"
	 width="2500px" height="2500px" viewBox="0 0 2500 2500" enable-background="new 0 0 2500 2500" xml:space="preserve">
<path fill="#FFFFFF" d="M0.15,0H2499.85v2500H0.15V0z"/>
<path fill="#FFFFFF" d="M11.217,11.08h2479.317v2479.317H11.217V11.08z"/>
<path fill="#FFFFFF" d="M2264.866,1767.363V173.981H250.747v1593.382H2264.866L2264.866,1767.363z"/>
<linearGradient id="SVGID_1_" gradientUnits="userSpaceOnUse" x1="919.9033" y1="1619.2422" x2="962.1046" y2="1661.4445" gradientTransform="matrix(13.0655 0 0 -13.0655 -11395.7578 22366.9141)">
	<stop  offset="0.17" style="stop-color:#C9CA08"/>
	<stop  offset="0.418" style="stop-color:#C8C909"/>
	<stop  offset="0.578" style="stop-color:#BFC70B"/>
	<stop  offset="0.713" style="stop-color:#B4C313"/>
	<stop  offset="0.834" style="stop-color:#A1BD18"/>
	<stop  offset="0.944" style="stop-color:#8BB623"/>
	<stop  offset="1" style="stop-color:#7EB227"/>
</linearGradient>
<path fill="url(#SVGID_1_)" d="M1242.2,740.673L686.588,480.981v779.072l555.625-2.025V740.673H1242.2z"/>
<linearGradient id="SVGID_2_" gradientUnits="userSpaceOnUse" x1="972.2744" y1="1661.3311" x2="1014.2954" y2="1619.3101" gradientTransform="matrix(13.0655 0 0 -13.0655 -11395.7578 22366.9141)">
	<stop  offset="0" style="stop-color:#547E1C"/>
	<stop  offset="0.077" style="stop-color:#679721"/>
	<stop  offset="0.151" style="stop-color:#77AB25"/>
	<stop  offset="0.192" style="stop-color:#7EB227"/>
	<stop  offset="0.197" style="stop-color:#82B326"/>
	<stop  offset="0.229" style="stop-color:#97BA1E"/>
	<stop  offset="0.266" style="stop-color:#ABC016"/>
	<stop  offset="0.309" style="stop-color:#B8C510"/>
	<stop  offset="0.362" style="stop-color:#C2C80B"/>
	<stop  offset="0.437" style="stop-color:#C7CA08"/>
	<stop  offset="0.644" style="stop-color:#C9CA08"/>
</linearGradient>
<path fill="url(#SVGID_2_)" d="M1792.781,480.981l-550.895,259.691v519.381h550.895V480.981z"/>
<linearGradient id="SVGID_3_" gradientUnits="userSpaceOnUse" x1="968.7012" y1="1630.3203" x2="1012.2142" y2="1586.8073" gradientTransform="matrix(13.0655 0 0 -13.0655 -11395.7578 22366.9141)">
	<stop  offset="0" style="stop-color:#57811B"/>
	<stop  offset="0.226" style="stop-color:#7EB227"/>
	<stop  offset="0.259" style="stop-color:#85B426"/>
	<stop  offset="0.379" style="stop-color:#9EBC1B"/>
	<stop  offset="0.507" style="stop-color:#B2C213"/>
	<stop  offset="0.644" style="stop-color:#BEC70D"/>
	<stop  offset="0.798" style="stop-color:#C8C909"/>
	<stop  offset="1" style="stop-color:#C9CA08"/>
</linearGradient>
<path fill="url(#SVGID_3_)" d="M1887.638,1561.829v-68.45l-456.993-583.808v652.258H1887.638L1887.638,1561.829z"/>
<linearGradient id="SVGID_4_" gradientUnits="userSpaceOnUse" x1="966.0366" y1="1630.0391" x2="922.5236" y2="1586.5271" gradientTransform="matrix(13.0655 0 0 -13.0655 -11395.7578 22366.9141)">
	<stop  offset="0" style="stop-color:#4A7017"/>
	<stop  offset="0.271" style="stop-color:#7EB227"/>
	<stop  offset="0.316" style="stop-color:#8BB623"/>
	<stop  offset="0.409" style="stop-color:#A1BD1A"/>
	<stop  offset="0.511" style="stop-color:#B4C313"/>
	<stop  offset="0.623" style="stop-color:#BFC70B"/>
	<stop  offset="0.756" style="stop-color:#C8C909"/>
	<stop  offset="0.961" style="stop-color:#C9CA08"/>
</linearGradient>
<path fill="url(#SVGID_4_)" d="M1056.016,1565.709V913.464l-456.98,583.808v68.438H1056.016z"/>
<linearGradient id="SVGID_5_" gradientUnits="userSpaceOnUse" x1="917.8257" y1="1669.2324" x2="950.8957" y2="1669.2324" gradientTransform="matrix(13.0655 0 0 -13.0655 -11395.7578 22366.9141)">
	<stop  offset="0" style="stop-color:#000000"/>
	<stop  offset="0" style="stop-color:#7A9349"/>
	<stop  offset="0.045" style="stop-color:#819851"/>
	<stop  offset="0.373" style="stop-color:#B0BF8E"/>
	<stop  offset="0.653" style="stop-color:#D5DEC2"/>
	<stop  offset="0.871" style="stop-color:#EEF3E8"/>
	<stop  offset="1" style="stop-color:#FFFFFF"/>
</linearGradient>
<path fill="url(#SVGID_5_)" d="M562.778,374.289l93.615,86.559c134.875,98.645,330.152,191.254,585.819,279.825v-48.316
	L562.778,374.289z"/>
<linearGradient id="SVGID_6_" gradientUnits="userSpaceOnUse" x1="967.3584" y1="1668.2314" x2="1009.5174" y2="1668.2314" gradientTransform="matrix(13.0655 0 0 -13.0655 -11395.7578 22366.9141)">
	<stop  offset="0" style="stop-color:#D9E6DE"/>
	<stop  offset="1" style="stop-color:#708743"/>
</linearGradient>
<path fill="url(#SVGID_6_)" d="M1792.781,480.981l66.426-80.522l-617.478,291.793l0.131,48.421
	C1511.624,629.942,1695.156,543.383,1792.781,480.981L1792.781,480.981z"/>
<linearGradient id="SVGID_7_" gradientUnits="userSpaceOnUse" x1="981.541" y1="1618.2041" x2="1029.8447" y2="1618.2041" gradientTransform="matrix(13.0655 0 0 -13.0655 -11395.7578 22366.9141)">
	<stop  offset="0" style="stop-color:#FFFFFF"/>
	<stop  offset="0.134" style="stop-color:#EEF1E6"/>
	<stop  offset="0.372" style="stop-color:#CFDABC"/>
	<stop  offset="0.686" style="stop-color:#A4B780"/>
	<stop  offset="1" style="stop-color:#7A9349"/>
</linearGradient>
<path fill="url(#SVGID_7_)" d="M1428.605,851.259l2.013,63.421c146.948,211.374,304.988,413.694,472.071,607.966l157.034,74.486
	L1428.605,851.259z"/>
<g>
	
		<linearGradient id="SVGID_8_" gradientUnits="userSpaceOnUse" x1="897.6733" y1="1617.7314" x2="943.6263" y2="1617.7314" gradientTransform="matrix(13.0655 0 0 -13.0655 -11395.7578 22366.9141)">
		<stop  offset="0" style="stop-color:#629121"/>
		<stop  offset="1" style="stop-color:#D9E6DE"/>
	</linearGradient>
	<path fill="url(#SVGID_8_)" d="M1055.911,917.828l1.006-65.419l-597.892,755.92l111.723-67.444
		C707.637,1411.039,869.701,1203.689,1055.911,917.828z"/>
</g>
<g>
	
		<radialGradient id="SVGID_9_" cx="967.418" cy="1634.6465" r="106.5908" gradientTransform="matrix(13.0655 0 0 -13.0655 -11395.7578 22366.9141)" gradientUnits="userSpaceOnUse">
		<stop  offset="0" style="stop-color:#000000"/>
		<stop  offset="0.031" style="stop-color:#4A4A4D"/>
		<stop  offset="0.082" style="stop-color:#727477"/>
		<stop  offset="0.136" style="stop-color:#939699"/>
		<stop  offset="0.191" style="stop-color:#B1B4B7"/>
		<stop  offset="0.248" style="stop-color:#CBCFD0"/>
		<stop  offset="0.307" style="stop-color:#E2E2E3"/>
		<stop  offset="0.369" style="stop-color:#F0F1F1"/>
		<stop  offset="0.437" style="stop-color:#FAFAFA"/>
		<stop  offset="0.52" style="stop-color:#FFFFFF"/>
	</radialGradient>
	<path fill="url(#SVGID_9_)" d="M1680.053,1201.677c114.741,147.968,244.586,290.904,392.554,429.805l-22.133-1439.379
		c-315.05,345.244-522.399,565.686-622.051,659.287C1531.092,1000.363,1614.62,1117.117,1680.053,1201.677z"/>
</g>
<g>
	
		<radialGradient id="SVGID_10_" cx="967.5444" cy="1634.6855" r="108.146" gradientTransform="matrix(13.0655 0 0 -13.0655 -11395.7578 22366.9141)" gradientUnits="userSpaceOnUse">
		<stop  offset="0" style="stop-color:#000000"/>
		<stop  offset="0.069" style="stop-color:#59595C"/>
		<stop  offset="0.171" style="stop-color:#8D9093"/>
		<stop  offset="0.263" style="stop-color:#BABDC0"/>
		<stop  offset="0.342" style="stop-color:#DDDFE0"/>
		<stop  offset="0.403" style="stop-color:#F4F4F5"/>
		<stop  offset="0.441" style="stop-color:#FFFFFF"/>
	</radialGradient>
	<path fill="url(#SVGID_10_)" d="M1692.765,502.122c138.913-70.463,227.484-138.9,267.739-202.307l-758.324-90.074l-714.254,62.871
		c62.401,85.553,172.112,168.102,329.147,245.593c59.383,30.208,129.846,61.408,213.387,94.621
		c33.226,13.092,104.694,41.274,211.374,82.535C1439.124,619.882,1589.09,556.475,1692.765,502.122L1692.765,502.122z"/>
</g>
<g>
	<path fill="#FFFFFF" d="M448.037,173.981h-49.322l4.023,1468.567c80.536-59.383,174.138-152.997,282.844-281.837
		c121.783-143.943,244.587-313.037,371.427-508.314L875.816,677.252c-65.433-65.419-120.791-120.777-164.077-169.106
		C615.119,404.483,527.554,292.747,448.037,173.981L448.037,173.981z"/>
</g>
<g>
	<path fill="#FFFFFF" d="M250.316,1704.753v62.388h2014.119v-45.298c-155.009-88.559-290.904-171.12-407.658-246.6
		c-224.466-147.967-429.804-302.964-614.995-467.04c-182.186,180.174-384.506,340.227-608.972,480.132
		c-102.669,64.427-222.44,131.857-360.348,205.339L250.316,1704.753L250.316,1704.753z"/>
</g>
<g>
	<path fill="#86BF2A" d="M2281.015,1746.419h-5.174l-6.232,19.65c-0.872,1.215-1.404,2.64-1.542,4.129
		c-0.618-1.156-1.139-2.362-1.555-3.606l-6.741-20.173h-5.174v27.934h3.109v-23.792l8.283,23.792h3.084l8.296-23.282v23.282h3.619
		v-27.934H2281.015L2281.015,1746.419z M2241.688,1750.025h8.793v-3.606h-21.728v3.606h9.315v24.327h3.619V1750.025z
		 M2113.711,1746.458l-155.846,126.096l-155.075-126.096h-87.709l199.707,161.347l-199.707,161.333h87.709l155.075-126.88
		l155.846,126.88h86.925l-198.923-161.333l198.923-161.347H2113.711z M1689.237,1907.805c0-72.057-18.788-125.299-54.81-161.347
		h-318.747c-37.603,36.048-56.392,89.29-56.392,161.347c0,72.043,18.789,125.298,56.392,161.346h318.747
		C1670.449,2033.09,1689.237,1979.063,1689.237,1907.805z M1635.982,1907.805c0,24.275-5.462,49.322-15.666,75.192l-14.882,33.669
		H1343.85l-14.882-33.669c-10.962-25.857-15.665-50.903-15.665-75.192c0-38.374,10.191-74.408,30.547-108.078h261.585
		C1625.804,1833.383,1635.982,1869.431,1635.982,1907.805z M1177.852,1921.118v-26.628l23.492-12.543
		c-5.487-60.297-23.492-105.713-54.039-135.489h-318.76c-30.548,28.992-49.336,74.408-54.039,134.706h-51.675v53.268h51.675
		c4.703,60.285,23.491,104.942,54.039,134.719h318.76c30.547-30.56,48.539-75.191,54.039-134.719L1177.852,1921.118z
		 M1118.325,1799.713c14.728,25.067,24.562,52.702,28.979,81.438h-318.76c4.703-30.534,14.098-57.161,28.979-81.438H1118.325z
		 M1147.305,1934.432c-4.41,28.988-14.241,56.887-28.979,82.234H857.524c-14.882-24.275-24.276-51.687-28.979-82.234H1147.305z"/>
	<path fill="#86BF2A" d="M547.4,1907.805l198.91-161.347h-87.709l-155.063,126.096l-155.846-126.096h-86.154l198.14,161.347
		l-198.14,161.333h86.154l155.846-126.88l155.063,126.88h87.709L547.4,1907.805z"/>
</g>
<g>
	<path fill="#7EB227" d="M1936.464,403.177h-5.175l-6.219,19.65c-0.873,1.219-1.404,2.648-1.542,4.142
		c-0.615-1.162-1.136-2.372-1.555-3.619l-6.741-20.173h-5.174v27.934h3.109v-23.806l8.283,23.806h3.084l8.283-23.296v23.296h3.632
		v-27.934H1936.464L1936.464,403.177z M1897.123,406.796h8.807v-3.619h-21.729v3.619h9.315v24.328h3.606V406.796L1897.123,406.796z"
		/>
</g>
</svg>
